<?xml version="1.0" encoding="UTF-8"?>
<!DOCTYPE svg PUBLIC "-//W3C//DTD SVG 1.1//EN" "http://www.w3.org/Graphics/SVG/1.1/DTD/svg11.dtd">
<!-- Creator: CorelDRAW -->
<svg xmlns="http://www.w3.org/2000/svg" xml:space="preserve" width="197.5mm" height="170mm" version="1.1" style="shape-rendering:geometricPrecision; text-rendering:geometricPrecision; image-rendering:optimizeQuality; fill-rule:evenodd; clip-rule:evenodd"
viewBox="0 0 19750 17000"
 xmlns:xlink="http://www.w3.org/1999/xlink">
 <defs>
  <style type="text/css">
   <![CDATA[
    .str0 {stroke:#292929;stroke-width:25;stroke-miterlimit:22.9256}
    .str1 {stroke:#292929;stroke-width:20;stroke-miterlimit:22.9256}
    .fil0 {fill:#52668C}
    .fil1 {fill:white;fill-rule:nonzero}
   ]]>
  </style>
 </defs>
 <g id="Layer_x0020_1">
  <metadata id="CorelCorpID_0Corel-Layer"/>
  <g id="_105553501738272">
   <path class="fil0" d="M3093.22 9129.44l0 6828.07c0,288.06 323.47,673.82 627.64,673.82 11292.59,0 6326.52,0 12328.56,0 240.81,0 598.4,-235.54 627.48,-629.06l0.16 -3908.01c0,-817.52 -72.31,-1791.06 33.17,-2528.49 98.48,-688.24 -328.86,-812.11 -1119.43,-1459.19l-3517.47 -2899.22c-289.72,-243.99 -1997.48,-1738.04 -2210.6,-1738.04 -118.04,0 -1333.17,1057.83 -1544.66,1237.36l-2704.32 2231.6c-369.97,323.35 -2520.53,1937.28 -2520.53,2191.16z"/>
   <path class="fil0" d="M358.53 7961.48c0,287.76 177.34,432.91 481.6,775.25 589.87,663.69 609.27,807.67 1301.66,203.02l3589.88 -3006.34c699.83,-566.42 1380.65,-1117.91 2058.83,-1710.42l1814.13 -1506.41c352.31,-345.53 308.57,-202.43 841.2,213.39 178.01,138.96 325.99,283.04 506.26,436.07 350.96,297.93 687.91,550.78 1029.25,855.38 869.33,775.76 2181.51,1766.79 3091.78,2562.1 97.64,85.3 146.18,120.34 245.3,203.42l703.37 597.91c44.6,36.97 50.86,43.72 72.46,62.18 7.06,6.02 17.11,14.68 24.17,20.71l1014 825.73c488.55,396.38 1052.09,1178.57 1505.22,623.96l524.66 -642.25c315.01,-393.63 291.64,-595.12 -90.05,-892.26l-1781.69 -1493.99c-143.03,-115.47 -225.65,-189.26 -371.65,-301.41 -144.66,-111.14 -214.76,-231.99 -237.85,-435.51 -60.84,-536.24 -4.03,-3060.48 -4,-3949.06 0.03,-1222.03 286.96,-988.29 -2645.05,-988.29 -522.88,0 -403.47,559.55 -403.47,1078.12 0,509.1 0,1018.22 0,1527.33l-2362.63 -1945.07c-419.39,-356.02 -707.05,-705.3 -1403.18,-705.3 -794.44,0 -1798.9,1104.7 -2549.08,1713.34 -395.72,321.04 -747.79,637.16 -1152.83,956.15l-5547.33 4638.67c-95.98,79.35 -254.96,143.56 -254.96,283.58z"/>
   <path class="fil1 str0" d="M7235.24 8955.94l347.9 1244.71 367.22 -1244.71c12.89,-43.81 19.33,-74.73 19.33,-92.77 0,-43.81 -20.61,-64.43 -61.85,-61.85l-54.11 3.86 -7.74 0c-118.54,0 -177.81,-77.31 -177.81,-231.93 0,-188.12 82.46,-282.18 247.39,-282.18 54.12,0 134.01,6.44 239.67,19.32 105.66,12.89 185.54,19.33 239.66,19.33 82.47,0 157.2,-5.15 224.2,-15.46 100.51,-15.46 173.95,-23.19 220.34,-23.19 79.89,0 144.31,25.12 193.28,75.37 48.96,50.26 73.44,115.33 73.44,195.21 0,74.74 -18.68,137.88 -56.05,189.42 -37.36,51.54 -83.11,77.31 -137.22,77.31 -18.04,0 -43.81,-4.51 -77.32,-13.53 -33.5,-9.02 -55.4,-13.53 -65.71,-13.53 -61.85,0 -128.85,110.81 -201.01,332.44l-471.6 1434.11c-69.57,211.32 -171.37,316.98 -305.37,316.98 -25.77,0 -64.43,-1.93 -115.97,-5.8 -51.54,-3.86 -90.2,-5.8 -115.97,-5.8 -25.77,0 -63.13,1.94 -112.1,5.8 -48.96,3.87 -86.33,5.8 -112.1,5.8 -136.58,0 -252.55,-149.47 -347.9,-448.4l-460 -1445.72c-41.23,-126.27 -87.62,-189.41 -139.16,-189.41 -18.04,0 -41.87,4.51 -71.51,13.53 -29.64,9.02 -58.63,13.53 -86.98,13.53 -56.69,0 -102.43,-23.84 -137.22,-71.52 -34.79,-47.67 -52.19,-108.87 -52.19,-183.61 0,-188.12 94.06,-282.18 282.19,-282.18 51.54,0 130.14,6.44 235.8,19.32 105.65,12.89 185.54,19.33 239.66,19.33 77.31,0 164.93,-6.44 262.86,-19.33 97.92,-12.88 166.22,-19.32 204.87,-19.32 170.09,0 255.13,95.35 255.13,286.05 0,152.04 -52.83,228.06 -158.49,228.06l-38.66 0c-7.73,-2.57 -19.32,-3.86 -34.79,-3.86 -46.38,0 -69.57,21.9 -69.57,65.71 0,23.2 5.15,52.83 15.46,88.91zm2698.15 -15.46c72.15,0 108.23,50.25 108.23,150.75l0 1163.54c0,131.42 24.48,197.14 73.45,197.14 10.31,0 28.99,-3.22 56.05,-9.67 27.06,-6.44 49.61,-9.66 67.65,-9.66 108.23,0 162.35,67 162.35,201.01 0,177.81 -76.02,266.72 -228.07,266.72 -25.77,0 -97.93,-6.44 -216.47,-19.33 -72.16,-7.73 -154.62,-11.59 -247.39,-11.59 -46.39,0 -114.68,5.15 -204.88,15.46 -90.19,10.31 -157.2,15.46 -201.01,15.46 -69.58,0 -126.27,-23.84 -170.08,-71.51 -43.81,-47.68 -65.72,-108.88 -65.72,-183.61 0,-146.9 61.85,-220.34 185.55,-220.34 0,0 33.5,7.73 100.51,23.19 10.3,2.58 19.32,3.87 27.05,3.87 46.39,0 69.58,-72.16 69.58,-216.47l0 -626.22c0,-146.89 -21.9,-220.34 -65.71,-220.34 -7.73,0 -30.92,6.44 -69.58,19.33 -25.77,5.15 -46.39,7.73 -61.85,7.73 -123.7,0 -185.55,-72.16 -185.55,-216.47 0,-77.31 21.91,-139.8 65.72,-187.48 43.81,-47.67 101.79,-71.51 173.95,-71.51 28.35,0 69.58,3.86 123.7,11.59 90.19,12.89 162.35,19.33 216.47,19.33 43.81,0 100.5,-5.15 170.08,-15.46 69.58,-10.31 108.24,-15.46 115.97,-15.46zm-220.34 -146.89c-95.35,0 -177.81,-34.79 -247.39,-104.37 -69.58,-69.58 -104.37,-152.05 -104.37,-247.4 0,-97.92 34.14,-181.03 102.43,-249.33 68.29,-68.29 151.4,-102.43 249.33,-102.43 97.93,0 181.04,34.14 249.33,102.43 68.29,68.3 102.44,151.41 102.44,249.33 0,97.93 -34.15,181.04 -102.44,249.33 -68.29,68.29 -151.4,102.44 -249.33,102.44zm1588.74 -510.26c72.16,0 108.24,47.68 108.24,143.03l0 1828.41c0,128.85 25.77,193.27 77.31,193.27 20.61,0 38.65,-2.57 54.12,-7.73 15.46,-5.15 36.07,-7.73 61.84,-7.73 113.39,0 170.09,67 170.09,201.01 0,177.81 -77.31,266.72 -231.93,266.72 -2.58,0 -100.51,-7.73 -293.79,-23.19 -59.27,-5.16 -122.4,-7.73 -189.41,-7.73 -56.69,0 -117.25,3.86 -181.68,11.59 -108.23,12.89 -176.53,19.33 -204.87,19.33 -69.58,0 -126.28,-23.84 -170.09,-71.51 -43.81,-47.68 -65.71,-110.17 -65.71,-187.48 0,-144.31 63.14,-216.47 189.41,-216.47 15.46,0 36.72,4.51 63.78,13.53 27.06,9.02 48.32,13.53 63.78,13.53 43.81,0 65.72,-72.16 65.72,-216.47l0 -1287.23c0,-144.31 -21.91,-216.47 -65.72,-216.47 -18.04,0 -41.23,5.15 -69.58,15.46 -15.46,5.15 -36.07,7.73 -61.84,7.73 -123.7,0 -185.55,-70.87 -185.55,-212.6 0,-79.89 21.9,-143.03 65.71,-189.42 43.81,-46.38 103.08,-69.58 177.82,-69.58 20.61,0 64.42,3.87 131.43,11.6 87.62,10.31 153.33,15.46 197.14,15.46 59.27,0 110.81,-5.15 154.62,-15.46 59.27,-7.73 105.66,-11.6 139.16,-11.6zm2357.99 2667.23c-211.32,0 -353.06,-85.04 -425.21,-255.12 -180.4,170.08 -394.29,255.12 -641.68,255.12 -203.59,0 -365.94,-53.47 -487.06,-160.42 -121.12,-106.94 -181.68,-249.32 -181.68,-427.14 0,-270.59 117.25,-445.83 351.76,-525.71 100.5,-33.51 216.47,-61.85 347.9,-85.05 182.97,-30.92 307.31,-66.35 373.03,-106.3 65.71,-39.94 98.57,-101.15 98.57,-183.61 0,-59.27 -25.13,-108.88 -75.38,-148.83 -50.25,-39.94 -112.75,-59.91 -187.48,-59.91 -85.04,0 -127.56,27.06 -127.56,81.17 0,18.04 1.29,36.08 3.86,54.12l0 15.46c0,72.16 -30.28,132.72 -90.84,181.69 -60.56,48.96 -135.94,73.44 -226.13,73.44 -103.08,0 -188.13,-30.92 -255.13,-92.77 -67,-61.85 -100.5,-139.16 -100.5,-231.94 0,-139.16 73.44,-248.68 220.33,-328.57 146.89,-79.89 349.19,-119.83 606.89,-119.83 278.32,0 485.77,42.52 622.36,127.56 146.89,92.78 220.33,265.44 220.33,517.99l0 800.17c0,82.46 20.62,123.69 61.85,123.69 20.62,0 39.95,-1.28 57.99,-3.86 7.73,-2.58 16.75,-3.87 27.05,-3.87 59.28,0 109.53,20.62 150.76,61.85 41.23,41.23 61.85,91.49 61.85,150.76 0,85.04 -38.01,154.62 -114.03,208.74 -76.03,54.12 -173.31,81.17 -291.85,81.17zm-560.51 -827.22l0 -85.05c-18.04,10.31 -131.43,42.53 -340.17,96.64 -141.73,36.08 -212.6,91.49 -212.6,166.22 0,118.55 69.58,177.82 208.74,177.82 229.35,0 344.03,-118.55 344.03,-355.63z"/>
   <path class="fil1 str1" d="M4567.84 14327.54c69.58,0 104.37,-87.62 104.37,-262.86l0 -1070.76c0,-172.66 -34.79,-258.99 -104.37,-258.99 -20.62,0 -50.9,4.51 -90.84,13.53 -39.95,9.02 -71.52,13.53 -94.71,13.53 -59.27,0 -108.88,-24.48 -148.82,-73.45 -39.95,-48.96 -59.92,-109.52 -59.92,-181.68 0,-85.04 25.77,-153.33 77.31,-204.87 51.54,-51.54 118.54,-77.31 201.01,-77.31 43.81,0 134.01,7.73 270.59,23.19 90.19,10.31 176.52,15.46 258.99,15.46 30.92,0 103.08,-3.86 216.47,-11.6l282.19 -19.32c74.73,-5.16 148.18,-7.73 220.33,-7.73 466.45,0 800.17,197.14 1001.18,591.43 113.39,221.62 170.08,460 170.08,715.12 0,255.13 -54.11,489.64 -162.35,703.53 -108.23,213.9 -252.55,371.09 -432.94,471.6 -159.78,87.62 -350.48,131.43 -572.1,131.43 -87.62,0 -162.36,-2.58 -224.2,-7.73l-282.19 -23.2c-61.85,-5.15 -134.01,-7.73 -216.47,-7.73 -103.08,0 -189.41,3.87 -258.99,11.6l-154.62 15.46c-59.28,7.73 -97.93,11.6 -115.97,11.6 -82.47,0 -149.47,-25.77 -201.01,-77.31 -51.54,-51.54 -77.31,-119.84 -77.31,-204.88 0,-72.15 19.97,-132.71 59.92,-181.68 39.94,-48.96 89.55,-73.44 148.82,-73.44 23.19,0 55.41,4.51 96.64,13.53 41.23,9.02 70.87,13.53 88.91,13.53zm1005.04 -1608.07c-87.62,0 -146.25,13.53 -175.88,40.58 -29.64,27.06 -44.46,80.54 -44.46,160.42l0 1217.65c0,79.89 14.82,134.01 44.46,162.36 29.63,28.34 88.26,42.52 175.88,42.52 141.74,0 269.3,-57.99 382.69,-173.95 131.43,-136.59 197.14,-338.88 197.14,-606.89 0,-301.52 -65.71,-524.43 -197.14,-668.74 -59.27,-64.43 -123.7,-110.82 -193.28,-139.16 -59.27,-23.2 -122.41,-34.79 -189.41,-34.79zm3258.66 2164.7c-211.32,0 -353.06,-85.04 -425.21,-255.12 -180.4,170.08 -394.29,255.12 -641.68,255.12 -203.59,0 -365.94,-53.47 -487.06,-160.42 -121.12,-106.94 -181.68,-249.32 -181.68,-427.14 0,-270.59 117.25,-445.83 351.76,-525.71 100.5,-33.51 216.47,-61.85 347.9,-85.05 182.97,-30.92 307.31,-66.35 373.03,-106.3 65.71,-39.94 98.57,-101.15 98.57,-183.61 0,-59.27 -25.13,-108.88 -75.38,-148.83 -50.25,-39.94 -112.75,-59.91 -187.48,-59.91 -85.04,0 -127.56,27.06 -127.56,81.17 0,18.04 1.29,36.08 3.86,54.12l0 15.46c0,72.16 -30.28,132.72 -90.84,181.69 -60.56,48.96 -135.94,73.44 -226.13,73.44 -103.08,0 -188.13,-30.92 -255.13,-92.77 -67,-61.85 -100.5,-139.16 -100.5,-231.94 0,-139.16 73.44,-248.68 220.33,-328.57 146.89,-79.89 349.19,-119.83 606.89,-119.83 278.32,0 485.77,42.52 622.36,127.56 146.89,92.78 220.33,265.44 220.33,517.99l0 800.17c0,82.46 20.62,123.69 61.85,123.69 20.62,0 39.95,-1.28 57.99,-3.86 7.73,-2.58 16.75,-3.87 27.05,-3.87 59.28,0 109.53,20.62 150.76,61.85 41.23,41.23 61.85,91.49 61.85,150.76 0,85.04 -38.01,154.62 -114.03,208.74 -76.03,54.12 -173.31,81.17 -291.85,81.17zm-560.51 -827.22l0 -85.05c-18.04,10.31 -131.43,42.53 -340.17,96.64 -141.73,36.08 -212.6,91.49 -212.6,166.22 0,118.55 69.58,177.82 208.74,177.82 229.35,0 344.03,-118.55 344.03,-355.63zm1863.2 -1840.01c72.16,0 108.24,47.68 108.24,143.03l0 1828.41c0,128.85 25.77,193.27 77.31,193.27 20.61,0 38.65,-2.57 54.12,-7.73 15.46,-5.15 36.07,-7.73 61.84,-7.73 113.39,0 170.09,67 170.09,201.01 0,177.81 -77.31,266.72 -231.93,266.72 -2.58,0 -100.51,-7.73 -293.79,-23.19 -59.27,-5.16 -122.4,-7.73 -189.41,-7.73 -56.69,0 -117.25,3.86 -181.68,11.59 -108.23,12.89 -176.53,19.33 -204.87,19.33 -69.58,0 -126.28,-23.84 -170.09,-71.51 -43.81,-47.68 -65.71,-110.17 -65.71,-187.48 0,-144.31 63.14,-216.47 189.41,-216.47 15.46,0 36.72,4.51 63.78,13.53 27.06,9.02 48.32,13.53 63.78,13.53 43.81,0 65.72,-72.16 65.72,-216.47l0 -1287.23c0,-144.31 -21.91,-216.47 -65.72,-216.47 -18.04,0 -41.23,5.15 -69.58,15.46 -15.46,5.15 -36.07,7.73 -61.84,7.73 -123.7,0 -185.55,-70.87 -185.55,-212.6 0,-79.89 21.9,-143.03 65.71,-189.42 43.81,-46.38 103.08,-69.58 177.82,-69.58 20.61,0 64.42,3.87 131.43,11.6 87.62,10.31 153.33,15.46 197.14,15.46 59.27,0 110.81,-5.15 154.62,-15.46 59.27,-7.73 105.66,-11.6 139.16,-11.6zm1445.72 657.15c72.15,0 108.23,50.25 108.23,150.75l0 1163.54c0,131.42 24.48,197.14 73.45,197.14 10.31,0 28.99,-3.22 56.05,-9.67 27.06,-6.44 49.61,-9.66 67.65,-9.66 108.23,0 162.35,67 162.35,201.01 0,177.81 -76.02,266.72 -228.07,266.72 -25.77,0 -97.93,-6.44 -216.47,-19.33 -72.16,-7.73 -154.62,-11.59 -247.39,-11.59 -46.39,0 -114.68,5.15 -204.88,15.46 -90.19,10.31 -157.2,15.46 -201.01,15.46 -69.58,0 -126.27,-23.84 -170.08,-71.51 -43.81,-47.68 -65.72,-108.88 -65.72,-183.61 0,-146.9 61.85,-220.34 185.55,-220.34 0,0 33.5,7.73 100.51,23.19 10.3,2.58 19.32,3.87 27.05,3.87 46.39,0 69.58,-72.16 69.58,-216.47l0 -626.22c0,-146.89 -21.9,-220.34 -65.71,-220.34 -7.73,0 -30.92,6.44 -69.58,19.33 -25.77,5.15 -46.39,7.73 -61.85,7.73 -123.7,0 -185.55,-72.16 -185.55,-216.47 0,-77.31 21.91,-139.8 65.72,-187.48 43.81,-47.67 101.79,-71.51 173.95,-71.51 28.35,0 69.58,3.86 123.7,11.59 90.19,12.89 162.35,19.33 216.47,19.33 43.81,0 100.5,-5.15 170.08,-15.46 69.58,-10.31 108.24,-15.46 115.97,-15.46zm-220.34 -146.89c-95.35,0 -177.81,-34.79 -247.39,-104.37 -69.58,-69.58 -104.37,-152.05 -104.37,-247.4 0,-97.92 34.14,-181.03 102.43,-249.33 68.29,-68.29 151.4,-102.43 249.33,-102.43 97.93,0 181.04,34.14 249.33,102.43 68.29,68.3 102.44,151.41 102.44,249.33 0,97.93 -34.15,181.04 -102.44,249.33 -68.29,68.29 -151.4,102.44 -249.33,102.44zm1588.74 -510.26c72.16,0 108.24,47.68 108.24,143.03l0 1828.41c0,128.85 25.77,193.27 77.31,193.27 20.61,0 38.65,-2.57 54.12,-7.73 15.46,-5.15 36.07,-7.73 61.84,-7.73 113.39,0 170.09,67 170.09,201.01 0,177.81 -77.31,266.72 -231.93,266.72 -2.58,0 -100.51,-7.73 -293.79,-23.19 -59.27,-5.16 -122.4,-7.73 -189.41,-7.73 -56.69,0 -117.25,3.86 -181.68,11.59 -108.23,12.89 -176.53,19.33 -204.87,19.33 -69.58,0 -126.28,-23.84 -170.09,-71.51 -43.81,-47.68 -65.71,-110.17 -65.71,-187.48 0,-144.31 63.14,-216.47 189.41,-216.47 15.46,0 36.72,4.51 63.78,13.53 27.06,9.02 48.32,13.53 63.78,13.53 43.81,0 65.72,-72.16 65.72,-216.47l0 -1287.23c0,-144.31 -21.91,-216.47 -65.72,-216.47 -18.04,0 -41.23,5.15 -69.58,15.46 -15.46,5.15 -36.07,7.73 -61.84,7.73 -123.7,0 -185.55,-70.87 -185.55,-212.6 0,-79.89 21.9,-143.03 65.71,-189.42 43.81,-46.38 103.08,-69.58 177.82,-69.58 20.61,0 64.42,3.87 131.43,11.6 87.62,10.31 153.33,15.46 197.14,15.46 59.27,0 110.81,-5.15 154.62,-15.46 59.27,-7.73 105.66,-11.6 139.16,-11.6zm2357.99 2667.23c-211.32,0 -353.06,-85.04 -425.21,-255.12 -180.4,170.08 -394.29,255.12 -641.68,255.12 -203.59,0 -365.94,-53.47 -487.06,-160.42 -121.12,-106.94 -181.68,-249.32 -181.68,-427.14 0,-270.59 117.25,-445.83 351.76,-525.71 100.5,-33.51 216.47,-61.85 347.9,-85.05 182.97,-30.92 307.31,-66.35 373.03,-106.3 65.71,-39.94 98.57,-101.15 98.57,-183.61 0,-59.27 -25.13,-108.88 -75.38,-148.83 -50.25,-39.94 -112.75,-59.91 -187.48,-59.91 -85.04,0 -127.56,27.06 -127.56,81.17 0,18.04 1.29,36.08 3.86,54.12l0 15.46c0,72.16 -30.28,132.72 -90.84,181.69 -60.56,48.96 -135.94,73.44 -226.13,73.44 -103.08,0 -188.13,-30.92 -255.13,-92.77 -67,-61.85 -100.5,-139.16 -100.5,-231.94 0,-139.16 73.44,-248.68 220.33,-328.57 146.89,-79.89 349.19,-119.83 606.89,-119.83 278.32,0 485.77,42.52 622.36,127.56 146.89,92.78 220.33,265.44 220.33,517.99l0 800.17c0,82.46 20.62,123.69 61.85,123.69 20.62,0 39.95,-1.28 57.99,-3.86 7.73,-2.58 16.75,-3.87 27.05,-3.87 59.28,0 109.53,20.62 150.76,61.85 41.23,41.23 61.85,91.49 61.85,150.76 0,85.04 -38.01,154.62 -114.03,208.74 -76.03,54.12 -173.31,81.17 -291.85,81.17zm-560.51 -827.22l0 -85.05c-18.04,10.31 -131.43,42.53 -340.17,96.64 -141.73,36.08 -212.6,91.49 -212.6,166.22 0,118.55 69.58,177.82 208.74,177.82 229.35,0 344.03,-118.55 344.03,-355.63z"/>
  </g>
 </g>
</svg>
